<?xml version="1.0" encoding="UTF-8"?>
<svg width="20px" height="26px" viewBox="0 0 20 26" version="1.1" xmlns="http://www.w3.org/2000/svg" xmlns:xlink="http://www.w3.org/1999/xlink">
    <title>Group 9 Copy</title>
    <g id="Page-1" stroke="none" stroke-width="1" fill="none" fill-rule="evenodd">
        <g id="Group-9-Copy" transform="translate(-8.000000, -2.000000)">
            <g id="Group-8-Copy">
                <g id="Group-3-Copy" transform="translate(0.000000, 26.000000)"></g>
                <g id="Oval-2" transform="translate(7.500000, 6.000000)" stroke="#CC8B26">
                    <circle id="Oval" cx="10.5" cy="10" r="9.5"></circle>
                </g>
                <text id="e" font-family="MillionDreams-Regular, Million Dreams" font-size="29" font-weight="normal" letter-spacing="0.181250003" fill="#FFFFFF">
                    <tspan x="11" y="26">e</tspan>
                </text>
            </g>
            <g id="Group" transform="translate(18.000000, 15.000000) scale(-1, 1) translate(-18.000000, -15.000000) translate(8.000000, 2.000000)" fill="#ECE7CE" fill-rule="nonzero">
                <g id="Group-2" transform="translate(10.000000, 15.000000) scale(-1, -1) translate(-10.000000, -15.000000) translate(0.000000, 4.000000)">
                    <path d="M18.6694787,19.5820063 C18.6824986,19.6504949 18.7523151,19.7063633 18.845776,19.723127 L19.9126119,19.914486 C19.9625753,19.9234477 19.9631484,19.9742976 19.913185,19.9832593 C19.6300542,20.0340459 19.1051595,20.128186 18.8451882,20.1748186 C18.7517273,20.1915823 18.6825133,20.2473769 18.6694934,20.3158549 L18.3866713,21.80389 C18.3788976,21.8448186 18.2964139,21.8448186 18.2886255,21.80389 L18.0058033,20.315876 C17.9927835,20.2473874 17.9235548,20.1915928 17.8300792,20.1748291 C17.5700932,20.1282177 17.0451837,20.0340775 16.7620383,19.9832909 C16.7120749,19.9743292 16.7120749,19.9235848 16.7620383,19.9146231 C17.0451984,19.8638365 17.5701373,19.7696752 17.8301085,19.7230216 C17.9235548,19.7062579 17.9927688,19.6504633 18.0057886,19.5819852 L18.2886108,18.0939186 C18.2963845,18.0529899 18.3789856,18.0528505 18.3866272,18.0938237 C18.6337165,19.418675 18.661408,19.5395184 18.6694787,19.5820063 Z" id="Path-Copy"></path>
                    <path d="M5.0465649,2.72957966 L3.31600701,2.43820971 C3.24726065,2.42663165 3.19663521,2.38860499 3.1870394,2.34131315 L3.04001147,1.61501071 C3.02869853,1.55916117 2.8219948,0.321284766 2.65139149,0.26063504 C2.48078819,0.199985314 2.72844075,1.58673901 2.7397537,1.64257494 L2.88680183,2.36889099 C2.91322564,2.49933808 3.05285975,2.60426174 3.24251325,2.63619325 L4.38512105,2.82857143 L3.24172539,3.02107205 C3.05253652,3.05292193 2.91320544,3.15780477 2.88680183,3.28827908 L2.58074617,4.79987632 L2.27469051,3.2883335 C2.24826669,3.15785919 2.10893561,3.05297635 1.91972655,3.02111287 L0.776290484,2.82862585 L1.91978715,2.63608441 C2.10893561,2.60422092 2.24824649,2.49933808 2.27465011,2.36889099 L2.58070577,0.857252936 L2.65139149,1.20639076 C2.66272464,1.26222668 2.73924866,1.30134177 2.8219948,1.29369562 C2.90490255,1.28607668 2.96296221,1.23464885 2.95164927,1.17879932 L2.73082455,0.0882572298 C2.72058229,0.0377001363 2.65646212,0 2.58068556,0 C2.50492921,0 2.44078884,0.0377001363 2.43054658,0.0882572298 L1.97435193,2.34131315 C1.96477633,2.38861859 1.91447411,2.42661805 1.84621259,2.43810087 L0.114765822,2.72964769 C0.0473123667,2.74100807 0,2.7818238 0,2.82863945 C0,2.87545511 0.0473123667,2.91627084 0.114765822,2.92763122 L1.84619238,3.21911001 C1.91447411,3.23060644 1.96479653,3.2686059 1.97437213,3.31591134 L2.43054658,5.56889923 C2.44078884,5.61945633 2.50490901,5.65714286 2.58068556,5.65714286 C2.65646212,5.65714286 2.72058229,5.61944272 2.73082455,5.56889923 L3.1870192,3.31587052 C3.1965948,3.26855147 3.24689702,3.23056563 3.31517874,3.2190828 L5.0465245,2.9275768 C5.11397796,2.91621642 5.16129032,2.87540068 5.16129032,2.82858503 C5.16129032,2.78176938 5.11401836,2.74094004 5.0465649,2.72957966 Z" id="Path-Copy-3"></path>
                </g>
                <path d="M18.8087691,19.6108999 C18.8208776,19.6835393 18.8858069,19.7427936 18.9727255,19.7605733 L19.9648829,19.9635298 C20.0113488,19.9730347 20.0118818,20.0269663 19.9654159,20.0364712 C19.7021043,20.0903357 19.2139522,20.1901814 18.9721789,20.2396401 C18.8852602,20.2574198 18.8208912,20.3165959 18.8087827,20.3892241 L18.5457581,21.9674431 C18.5385286,22.0108523 18.4618188,22.0108523 18.4545755,21.9674431 L18.1915509,20.3892465 C18.1794425,20.3166071 18.1150598,20.257431 18.0281275,20.2396513 C17.7863405,20.1902149 17.2981747,20.0903693 17.0348495,20.0365047 C16.9883835,20.0269999 16.9883835,19.97318 17.0348495,19.9636752 C17.2981884,19.9098106 17.7863815,19.8099426 18.0281548,19.7604615 C18.1150598,19.7426818 18.1794288,19.6835057 18.1915373,19.6108775 L18.4545619,18.032625 C18.4617914,17.9892158 18.5386104,17.989068 18.5457171,18.0325244 C18.7755102,19.4376697 18.8012633,19.5658369 18.8087691,19.6108999 Z" id="Path-Copy" transform="translate(18.500000, 20.000000) scale(-1, -1) translate(-18.500000, -20.000000) "></path>
                <path d="M6.8666317,3.37751019 L4.85485815,3.01697667 C4.77494051,3.00265027 4.71608843,2.95559708 4.7049333,2.89707941 L4.53401334,1.99837184 C4.52086204,1.92926509 4.28056895,0.397549331 4.08224261,0.322502953 C3.88391627,0.247456576 4.17181237,1.96338918 4.18496368,2.03247909 L4.35590713,2.93120349 C4.38662481,3.09261531 4.54894946,3.22244508 4.76942166,3.2619563 L6.09770322,3.5 L4.76850576,3.73819522 C4.54857371,3.77760542 4.38660133,3.90738469 4.35590713,4.06883018 L4.00011742,5.9392409 L3.64432772,4.06889751 C3.61361003,3.90745203 3.45163765,3.77767276 3.23168211,3.73824572 L1.90243769,3.50006734 L3.23175257,3.26182162 C3.45163765,3.22239458 3.61358655,3.09261531 3.64428075,2.93120349 L4.00007045,1.06074227 L4.08224261,1.49275624 C4.0954174,1.56184615 4.18437657,1.61024612 4.28056895,1.60078498 C4.37694921,1.59135751 4.44444357,1.52772206 4.43129227,1.45861532 L4.17458354,0.109207178 C4.16267692,0.0466491585 4.08813721,0 4.00004697,0 C3.91198021,0 3.83741702,0.0466491585 3.8255104,0.109207178 L3.29518412,2.89707941 C3.28405248,2.95561392 3.22557615,3.00263344 3.14622213,3.01684199 L1.13341527,3.37759436 C1.05500063,3.3916514 1,3.44215572 1,3.50008417 C1,3.55801263 1.05500063,3.60851695 1.13341527,3.62257399 L3.14619865,3.98324219 C3.22557615,3.99746757 3.28407596,4.04448709 3.2952076,4.1030216 L3.8255104,6.89080966 C3.83741702,6.95336768 3.91195673,7 4.00004697,7 C4.08813721,7 4.16267692,6.95335084 4.17458354,6.89080966 L4.70490982,4.1029711 C4.71604146,4.04441975 4.77451779,3.99741706 4.85389529,3.98320852 L6.86658473,3.62250665 C6.94499937,3.60844961 7,3.55794529 7,3.50001683 C7,3.44208838 6.94504634,3.39156722 6.8666317,3.37751019 Z" id="Path" transform="translate(4.000000, 3.500000) scale(-1, -1) translate(-4.000000, -3.500000) "></path>
            </g>
        </g>
    </g>
</svg>