<?xml version="1.0" encoding="UTF-8"?>
<svg width="296px" height="300px" viewBox="0 0 296 300" version="1.1" xmlns="http://www.w3.org/2000/svg" xmlns:xlink="http://www.w3.org/1999/xlink">
    <title>Artboard</title>
    <g id="Artboard" stroke="none" stroke-width="1" fill="none" fill-rule="evenodd">
        <rect fill="#CC8B26" x="0" y="0" width="296" height="300"></rect>
        <g id="Group-3" transform="translate(65.000000, 80.000000)" fill="#ECE7CE" font-family="MillionDreams-Regular, Million Dreams" font-size="70" font-weight="normal" letter-spacing="0.437500007">
            <text id="Emelie">
                <tspan x="0" y="62">E</tspan>
                <tspan x="33.4075" y="62" font-size="60" letter-spacing="0.375000006">melie</tspan>
            </text>
            <text id="Sabel">
                <tspan x="11" y="109">S</tspan>
                <tspan x="46.8575" y="109" font-size="60" letter-spacing="0.375000006">abel</tspan>
            </text>
        </g>
        <g id="Group-Copy" transform="translate(235.500000, 175.000000) scale(-1, 1) translate(-235.500000, -175.000000) translate(229.000000, 164.000000)" fill="#ECE7CE" fill-rule="nonzero">
            <g id="Group-2">
                <path d="M4.69670971,4.12964443 C4.72403141,4.29212735 4.87053862,4.42466999 5.06666277,4.46444029 L7.30537679,4.91842197 C7.41022304,4.93968282 7.41142568,5.06031939 7.30657944,5.08158024 C6.71244044,5.20206673 5.61096897,5.42540571 5.06542928,5.53603717 C4.86930513,5.57580746 4.72406225,5.70817502 4.69674055,5.87063292 L4.10324913,9.40085955 C4.08693629,9.4979591 3.91384747,9.4979591 3.89750379,9.40085955 L3.30401237,5.87068295 C3.27669068,5.70820003 3.13141695,5.57583248 2.93526196,5.53606218 C2.38969145,5.42548075 1.28818913,5.20214177 0.694019299,5.08165528 C0.589173054,5.06039443 0.589173054,4.94000799 0.694019299,4.91874714 C1.28821997,4.79826065 2.38978396,4.57487164 2.93532364,4.46419016 C3.13141695,4.42441986 3.27665984,4.29205231 3.30398154,4.1295944 L3.89747296,0.599292742 C3.9137858,0.502193188 4.08712093,0.501862524 4.10315662,0.599067628 C4.62166405,3.74215582 4.67977349,4.0288456 4.69670971,4.12964443 Z" id="Path-Copy"></path>
                <path d="M4.36148482,8.88094559 L4.92307692,6.04497367 C4.31412243,5.19465648 3.86388162,4.31243215 3.58036968,3.68421053 L3.50306631,4.07455408 C3.4737215,4.22268621 3.31775682,4.34335858 3.1071101,4.37964468 C2.52117438,4.4805433 1.33800885,4.68423353 0.699842027,4.79411815 C0.587232145,4.81350419 0.587232145,4.92327477 0.699842027,4.94266081 C1.33800885,5.05252262 2.52107502,5.25616723 3.10701073,5.35699743 C3.31769057,5.39326072 3.4737215,5.51395591 3.50306631,5.66211084 L4.14050449,8.88096839 C4.15805838,8.96950556 4.34396405,8.96950556 4.36148482,8.88094559 Z" id="Path-Copy-2"></path>
                <path d="M7.8221756,4.82501455 L5.13981087,4.30996667 C5.03325401,4.28950039 4.95478457,4.22228154 4.93991107,4.13868487 L4.71201779,2.85481691 C4.69448272,2.75609299 4.37409193,0.567927616 4.10965681,0.460718505 C3.84522169,0.353509394 4.22908317,2.80484168 4.24661824,2.90354156 L4.47454284,4.18743356 C4.51549975,4.41802187 4.73193262,4.60349298 5.02589554,4.65993757 L6.79693763,5 L5.02467435,5.34027888 C4.73143161,5.39657917 4.51546844,5.58197813 4.47454284,5.81261454 L4.00015656,8.48462985 L3.52577029,5.81271074 C3.48481338,5.58207433 3.2688502,5.39667537 2.97557615,5.34035103 L1.20325025,5.0000962 L2.97567009,4.65974517 C3.2688502,4.60342083 3.48478206,4.41802187 3.52570767,4.18743356 L4.00009394,1.5153461 L4.10965681,2.13250891 C4.1272232,2.23120878 4.24583542,2.30035161 4.37409193,2.28683569 C4.50259895,2.27336787 4.59259143,2.18246009 4.57505636,2.08373617 L4.23277806,0.156010255 C4.21690256,0.066641655 4.11751628,0 4.00006263,0 C3.88264028,0 3.7832227,0.066641655 3.76734719,0.156010255 L3.06024549,4.13868487 C3.04540331,4.22230559 2.96743487,4.28947634 2.86162951,4.30977427 L0.177887024,4.8251348 C0.0733341683,4.84521628 0,4.91736531 0,5.00012025 C0,5.08287519 0.0733341683,5.15502422 0.177887024,5.1751057 L2.8615982,5.69034598 C2.96743487,5.71066796 3.04543462,5.7778387 3.0602768,5.86145943 L3.76734719,9.84401379 C3.7832227,9.93338239 3.88260897,10 4.00006263,10 C4.11751628,10 4.21690256,9.93335834 4.23277806,9.84401379 L4.93987976,5.86138728 C4.95472194,5.7777425 5.03269038,5.71059581 5.13852705,5.69029788 L7.82211298,5.1750095 C7.92666583,5.15492802 8,5.08277899 8,5.00002405 C8,4.91726911 7.92672846,4.84509603 7.8221756,4.82501455 Z" id="Path-Copy-3"></path>
            </g>
            <g id="Group-2-Copy" transform="translate(5.000000, 12.000000)">
                <path d="M4.69670971,4.12964443 C4.72403141,4.29212735 4.87053862,4.42466999 5.06666277,4.46444029 L7.30537679,4.91842197 C7.41022304,4.93968282 7.41142568,5.06031939 7.30657944,5.08158024 C6.71244044,5.20206673 5.61096897,5.42540571 5.06542928,5.53603717 C4.86930513,5.57580746 4.72406225,5.70817502 4.69674055,5.87063292 L4.10324913,9.40085955 C4.08693629,9.4979591 3.91384747,9.4979591 3.89750379,9.40085955 L3.30401237,5.87068295 C3.27669068,5.70820003 3.13141695,5.57583248 2.93526196,5.53606218 C2.38969145,5.42548075 1.28818913,5.20214177 0.694019299,5.08165528 C0.589173054,5.06039443 0.589173054,4.94000799 0.694019299,4.91874714 C1.28821997,4.79826065 2.38978396,4.57487164 2.93532364,4.46419016 C3.13141695,4.42441986 3.27665984,4.29205231 3.30398154,4.1295944 L3.89747296,0.599292742 C3.9137858,0.502193188 4.08712093,0.501862524 4.10315662,0.599067628 C4.62166405,3.74215582 4.67977349,4.0288456 4.69670971,4.12964443 Z" id="Path-Copy"></path>
                <path d="M4.36148482,8.88094559 L4.92307692,6.04497367 C4.31412243,5.19465648 3.86388162,4.31243215 3.58036968,3.68421053 L3.50306631,4.07455408 C3.4737215,4.22268621 3.31775682,4.34335858 3.1071101,4.37964468 C2.52117438,4.4805433 1.33800885,4.68423353 0.699842027,4.79411815 C0.587232145,4.81350419 0.587232145,4.92327477 0.699842027,4.94266081 C1.33800885,5.05252262 2.52107502,5.25616723 3.10701073,5.35699743 C3.31769057,5.39326072 3.4737215,5.51395591 3.50306631,5.66211084 L4.14050449,8.88096839 C4.15805838,8.96950556 4.34396405,8.96950556 4.36148482,8.88094559 Z" id="Path-Copy-2"></path>
                <path d="M7.8221756,4.82501455 L5.13981087,4.30996667 C5.03325401,4.28950039 4.95478457,4.22228154 4.93991107,4.13868487 L4.71201779,2.85481691 C4.69448272,2.75609299 4.37409193,0.567927616 4.10965681,0.460718505 C3.84522169,0.353509394 4.22908317,2.80484168 4.24661824,2.90354156 L4.47454284,4.18743356 C4.51549975,4.41802187 4.73193262,4.60349298 5.02589554,4.65993757 L6.79693763,5 L5.02467435,5.34027888 C4.73143161,5.39657917 4.51546844,5.58197813 4.47454284,5.81261454 L4.00015656,8.48462985 L3.52577029,5.81271074 C3.48481338,5.58207433 3.2688502,5.39667537 2.97557615,5.34035103 L1.20325025,5.0000962 L2.97567009,4.65974517 C3.2688502,4.60342083 3.48478206,4.41802187 3.52570767,4.18743356 L4.00009394,1.5153461 L4.10965681,2.13250891 C4.1272232,2.23120878 4.24583542,2.30035161 4.37409193,2.28683569 C4.50259895,2.27336787 4.59259143,2.18246009 4.57505636,2.08373617 L4.23277806,0.156010255 C4.21690256,0.066641655 4.11751628,0 4.00006263,0 C3.88264028,0 3.7832227,0.066641655 3.76734719,0.156010255 L3.06024549,4.13868487 C3.04540331,4.22230559 2.96743487,4.28947634 2.86162951,4.30977427 L0.177887024,4.8251348 C0.0733341683,4.84521628 0,4.91736531 0,5.00012025 C0,5.08287519 0.0733341683,5.15502422 0.177887024,5.1751057 L2.8615982,5.69034598 C2.96743487,5.71066796 3.04543462,5.7778387 3.0602768,5.86145943 L3.76734719,9.84401379 C3.7832227,9.93338239 3.88260897,10 4.00006263,10 C4.11751628,10 4.21690256,9.93335834 4.23277806,9.84401379 L4.93987976,5.86138728 C4.95472194,5.7777425 5.03269038,5.71059581 5.13852705,5.69029788 L7.82211298,5.1750095 C7.92666583,5.15492802 8,5.08277899 8,5.00002405 C8,4.91726911 7.92672846,4.84509603 7.8221756,4.82501455 Z" id="Path-Copy-3"></path>
            </g>
        </g>
        <g id="Group-2" transform="translate(58.500000, 101.000000) scale(-1, -1) translate(-58.500000, -101.000000) translate(53.000000, 94.000000)" fill="#ECE7CE" fill-rule="nonzero">
            <path d="M6.45797585,5.7815022 C6.49554319,6.00897829 6.6969906,6.19453799 6.96666131,6.2502164 L10.0448931,6.88579076 C10.1890567,6.91555595 10.1907103,7.08444714 10.0465467,7.11421233 C9.2296056,7.28289342 7.71508233,7.59556799 6.96496527,7.75045203 C6.69529456,7.80613045 6.49558559,7.99144502 6.45801825,8.21888609 L5.64196755,13.1612034 C5.6195374,13.2971427 5.38154027,13.2971427 5.35906772,13.1612034 L4.54301701,8.21895613 C4.50544968,7.99148004 4.30569831,7.80616547 4.0359852,7.75048705 C3.28582574,7.59567304 1.77126006,7.28299847 0.954276536,7.11431739 C0.81011295,7.0845522 0.81011295,6.91601118 0.954276536,6.88624599 C1.77130246,6.71756491 3.28595294,6.4048203 4.03607,6.24986622 C4.30569831,6.19418781 4.50540728,6.00887323 4.54297461,5.78143216 L5.35902531,0.839009839 C5.38145547,0.703070464 5.61979129,0.702607534 5.64184035,0.838694679 C6.35478807,5.23901815 6.43468855,5.64038383 6.45797585,5.7815022 Z" id="Path-Copy"></path>
            <path d="M5.99704162,12.4333238 L6.76923077,8.46296313 C5.93191834,7.27251907 5.31283723,6.03740502 4.92300832,5.15789474 L4.81671618,5.70437571 C4.77636707,5.91176069 4.56191562,6.08070202 4.27227638,6.13150256 C3.46661478,6.27276063 1.83976217,6.55792695 0.962282787,6.71176541 C0.807444199,6.73890586 0.807444199,6.89258468 0.962282787,6.91972513 C1.83976217,7.07353167 3.46647816,7.35863413 4.27213976,7.4997964 C4.56182454,7.55056501 4.77636707,7.71953827 4.81671618,7.92695518 L5.69319367,12.4333558 C5.71733027,12.5573078 5.97295056,12.5573078 5.99704162,12.4333238 Z" id="Path-Copy-2"></path>
            <path d="M10.7554915,6.75502037 L7.06723995,6.03395333 C6.92072426,6.00530055 6.81282878,5.91119416 6.79237772,5.79415881 L6.47902446,3.99674367 C6.45491373,3.85853018 6.01437641,0.795098663 5.65077812,0.645005907 C5.28717983,0.494913151 5.81498935,3.92677835 5.83910008,4.06495818 L6.1524964,5.86240699 C6.20881216,6.18523061 6.50640735,6.44489017 6.91060637,6.52391259 L9.34578923,7 L6.90892723,7.47639043 C6.50571847,7.55521084 6.2087691,7.81476939 6.1524964,8.13766035 L5.50021527,11.8784818 L4.84793415,8.13779503 C4.79161839,7.81490407 4.49466903,7.55534552 4.09141721,7.47649144 L1.65446909,7.00013468 L4.09154637,6.52364324 C4.49466903,6.44478916 4.79157534,6.18523061 4.84784804,5.86240699 L5.50012916,2.12148454 L5.65077812,2.98551247 C5.6749319,3.1236923 5.8380237,3.22049225 6.01437641,3.20156996 C6.19107355,3.18271502 6.31481322,3.05544413 6.2907025,2.91723063 L5.82006983,0.218414357 C5.79824101,0.093298317 5.66158489,0 5.50008611,0 C5.33863039,0 5.20193121,0.093298317 5.18010239,0.218414357 L4.20783755,5.79415881 C4.18742955,5.91122783 4.08022295,6.00526688 3.93474057,6.03368398 L0.244594658,6.75518872 C0.100834481,6.78330279 0,6.88431143 0,7.00016835 C0,7.11602526 0.100834481,7.21703391 0.244594658,7.24514798 L3.93469752,7.96648437 C4.08022295,7.99493514 4.1874726,8.08897419 4.2078806,8.2060432 L5.18010239,13.7816193 C5.20193121,13.9067354 5.33858733,14 5.50008611,14 C5.66158489,14 5.79824101,13.9067017 5.82006983,13.7816193 L6.79233467,8.20594219 C6.81274267,8.08883951 6.91994927,7.99483413 7.0654747,7.96641703 L10.7554053,7.2450133 C10.8991655,7.21689923 11,7.11589058 11,7.00003367 C11,6.88417676 10.8992516,6.78313444 10.7554915,6.75502037 Z" id="Path-Copy-3"></path>
        </g>
        <g id="Group-2-Copy" transform="translate(138.500000, 203.000000) scale(-1, -1) translate(-138.500000, -203.000000) translate(133.000000, 196.000000)" fill="#ECE7CE" fill-rule="nonzero">
            <path d="M6.45797585,5.7815022 C6.49554319,6.00897829 6.6969906,6.19453799 6.96666131,6.2502164 L10.0448931,6.88579076 C10.1890567,6.91555595 10.1907103,7.08444714 10.0465467,7.11421233 C9.2296056,7.28289342 7.71508233,7.59556799 6.96496527,7.75045203 C6.69529456,7.80613045 6.49558559,7.99144502 6.45801825,8.21888609 L5.64196755,13.1612034 C5.6195374,13.2971427 5.38154027,13.2971427 5.35906772,13.1612034 L4.54301701,8.21895613 C4.50544968,7.99148004 4.30569831,7.80616547 4.0359852,7.75048705 C3.28582574,7.59567304 1.77126006,7.28299847 0.954276536,7.11431739 C0.81011295,7.0845522 0.81011295,6.91601118 0.954276536,6.88624599 C1.77130246,6.71756491 3.28595294,6.4048203 4.03607,6.24986622 C4.30569831,6.19418781 4.50540728,6.00887323 4.54297461,5.78143216 L5.35902531,0.839009839 C5.38145547,0.703070464 5.61979129,0.702607534 5.64184035,0.838694679 C6.35478807,5.23901815 6.43468855,5.64038383 6.45797585,5.7815022 Z" id="Path-Copy"></path>
            <path d="M5.99704162,12.4333238 L6.76923077,8.46296313 C5.93191834,7.27251907 5.31283723,6.03740502 4.92300832,5.15789474 L4.81671618,5.70437571 C4.77636707,5.91176069 4.56191562,6.08070202 4.27227638,6.13150256 C3.46661478,6.27276063 1.83976217,6.55792695 0.962282787,6.71176541 C0.807444199,6.73890586 0.807444199,6.89258468 0.962282787,6.91972513 C1.83976217,7.07353167 3.46647816,7.35863413 4.27213976,7.4997964 C4.56182454,7.55056501 4.77636707,7.71953827 4.81671618,7.92695518 L5.69319367,12.4333558 C5.71733027,12.5573078 5.97295056,12.5573078 5.99704162,12.4333238 Z" id="Path-Copy-2"></path>
            <path d="M10.7554915,6.75502037 L7.06723995,6.03395333 C6.92072426,6.00530055 6.81282878,5.91119416 6.79237772,5.79415881 L6.47902446,3.99674367 C6.45491373,3.85853018 6.01437641,0.795098663 5.65077812,0.645005907 C5.28717983,0.494913151 5.81498935,3.92677835 5.83910008,4.06495818 L6.1524964,5.86240699 C6.20881216,6.18523061 6.50640735,6.44489017 6.91060637,6.52391259 L9.34578923,7 L6.90892723,7.47639043 C6.50571847,7.55521084 6.2087691,7.81476939 6.1524964,8.13766035 L5.50021527,11.8784818 L4.84793415,8.13779503 C4.79161839,7.81490407 4.49466903,7.55534552 4.09141721,7.47649144 L1.65446909,7.00013468 L4.09154637,6.52364324 C4.49466903,6.44478916 4.79157534,6.18523061 4.84784804,5.86240699 L5.50012916,2.12148454 L5.65077812,2.98551247 C5.6749319,3.1236923 5.8380237,3.22049225 6.01437641,3.20156996 C6.19107355,3.18271502 6.31481322,3.05544413 6.2907025,2.91723063 L5.82006983,0.218414357 C5.79824101,0.093298317 5.66158489,0 5.50008611,0 C5.33863039,0 5.20193121,0.093298317 5.18010239,0.218414357 L4.20783755,5.79415881 C4.18742955,5.91122783 4.08022295,6.00526688 3.93474057,6.03368398 L0.244594658,6.75518872 C0.100834481,6.78330279 0,6.88431143 0,7.00016835 C0,7.11602526 0.100834481,7.21703391 0.244594658,7.24514798 L3.93469752,7.96648437 C4.08022295,7.99493514 4.1874726,8.08897419 4.2078806,8.2060432 L5.18010239,13.7816193 C5.20193121,13.9067354 5.33858733,14 5.50008611,14 C5.66158489,14 5.79824101,13.9067017 5.82006983,13.7816193 L6.79233467,8.20594219 C6.81274267,8.08883951 6.91994927,7.99483413 7.0654747,7.96641703 L10.7554053,7.2450133 C10.8991655,7.21689923 11,7.11589058 11,7.00003367 C11,6.88417676 10.8992516,6.78313444 10.7554915,6.75502037 Z" id="Path-Copy-3"></path>
        </g>
        <path d="M72.6665793,85.2025247 L67.6371454,84.3269433 C67.4373513,84.2921507 67.2902211,84.1778786 67.2623333,84.0357643 L66.8350333,81.8531887 C66.8021551,81.6853581 66.2014224,77.9654769 65.7056065,77.7832215 C65.2097907,77.600966 65.9295309,81.7682309 65.9624092,81.9360206 L66.3897678,84.1186371 C66.466562,84.5106372 66.8723737,84.8259381 67.4235541,84.9218939 L70.744258,85.5 L67.4212644,86.0784741 C66.8714343,86.1741846 66.4665033,86.4893628 66.3897678,86.8814447 L65.5002936,91.4238707 L64.6108193,86.8816083 C64.5340251,86.4895264 64.1290941,86.1743481 63.5792053,86.0785967 L60.2560942,85.5001635 L63.5793814,84.9215668 C64.1290941,84.8258154 64.5339664,84.5106372 64.6107019,84.1186371 L65.5001761,79.5760884 L65.7056065,80.6252651 C65.7385435,80.7930549 65.9609414,80.9105977 66.2014224,80.8876207 C66.442373,80.8647254 66.6111089,80.7101822 66.5782307,80.5423515 L65.9364589,77.2652174 C65.9066923,77.1132908 65.720343,77 65.5001174,77 C65.2799505,77 65.0935426,77.1132908 65.063776,77.2652174 L63.7379603,84.0357643 C63.7101312,84.1779195 63.5639404,84.2921098 63.3655553,84.3266163 L58.3335382,85.2027292 C58.1375016,85.2368677 58,85.359521 58,85.5002044 C58,85.6408878 58.1375016,85.7635412 58.3335382,85.7976797 L63.3654966,86.6735882 C63.5639404,86.7081355 63.7101899,86.8223258 63.738019,86.964481 L65.063776,93.7348235 C65.0935426,93.8867501 65.2798918,94 65.5001174,94 C65.720343,94 65.9066923,93.8867092 65.9364589,93.7348235 L67.2622745,86.9643584 C67.2901036,86.8221623 67.4362945,86.7080129 67.6347382,86.6735064 L72.6664618,85.7975161 C72.8624984,85.7633776 73,85.6407243 73,85.5000409 C73,85.3593575 72.8626159,85.2366633 72.6665793,85.2025247 Z" id="Path" fill="#ECE7CE" fill-rule="nonzero" transform="translate(65.500000, 85.500000) scale(-1, -1) translate(-65.500000, -85.500000) "></path>
        <text id="STUDIO" font-family="Titania-Outline, Titania Outline" font-size="25" font-weight="normal" letter-spacing="0.156250002" fill="#ECE7CE">
            <tspan x="150" y="219">STUDIO</tspan>
        </text>
    </g>
</svg>