<?xml version="1.0" encoding="UTF-8"?>
<svg width="39px" height="70px" viewBox="0 0 39 70" version="1.1" xmlns="http://www.w3.org/2000/svg" xmlns:xlink="http://www.w3.org/1999/xlink">
    <title>Group 9</title>
    <g id="Page-1" stroke="none" stroke-width="1" fill="none" fill-rule="evenodd">
        <g id="Group-9">
            <g id="Group-8-Copy">
                <g id="Group-3-Copy" transform="translate(0.000000, 42.000000)"></g>
                <g id="Oval-2" transform="translate(5.500000, 10.000000)" stroke="#CC8B26" stroke-width="2">
                    <circle id="Oval" cx="16.5" cy="16" r="15"></circle>
                </g>
                <text id="e" font-family="MillionDreams-Regular, Million Dreams" font-size="48" font-weight="normal" letter-spacing="0.300000004" fill="#FFFFFF">
                    <tspan x="10" y="42">e</tspan>
                </text>
            </g>
            <g id="Group" transform="translate(22.000000, 25.000000) scale(-1, 1) translate(-22.000000, -25.000000) translate(6.000000, 4.000000)" fill="#ECE7CE" fill-rule="nonzero">
                <g id="Group-2" transform="translate(15.500000, 24.500000) scale(-1, -1) translate(-15.500000, -24.500000) translate(0.000000, 7.000000)">
                    <path d="M28.9376921,31.1531919 C28.9578729,31.262151 29.0660884,31.3510326 29.2109528,31.3777021 L30.8645484,31.6821368 C30.9419917,31.6963941 30.94288,31.7772916 30.8654367,31.7915489 C30.4265841,31.8723457 29.6129972,32.0221142 29.2100417,32.0963023 C29.0651773,32.1229718 28.9578956,32.2117359 28.9377148,32.3206783 L28.4993405,34.6880067 C28.4872912,34.7531206 28.3594415,34.7531206 28.3473695,34.6880067 L27.9089952,32.3207118 C27.8888144,32.2117527 27.7815099,32.1229886 27.6366227,32.0963191 C27.2336445,32.0221645 26.4200348,31.872396 25.9811594,31.7915992 C25.9037161,31.7773419 25.9037161,31.6966122 25.9811594,31.6823549 C26.4200576,31.6015581 27.2337128,31.451756 27.6366682,31.3775343 C27.7815099,31.3508648 27.8887916,31.2621007 27.9089724,31.1531584 L28.3473467,28.7857796 C28.359396,28.7206658 28.4874276,28.720444 28.4992722,28.7856286 C28.8822606,30.8933466 28.9251823,31.0855974 28.9376921,31.1531919 Z" id="Path-Copy"></path>
                    <path d="M7.8221756,4.3425131 L5.13981087,3.87897 C5.03325401,3.86055035 4.95478457,3.80005339 4.93991107,3.72481638 L4.71201779,2.56933522 C4.69448272,2.48048369 4.37409193,0.511134854 4.10965681,0.414646654 C3.84522169,0.318158454 4.22908317,2.52435751 4.24661824,2.6131874 L4.47454284,3.76869021 C4.51549975,3.97621968 4.73193262,4.14314368 5.02589554,4.19394381 L6.79693763,4.5 L5.02467435,4.80625099 C4.73143161,4.85692126 4.51546844,5.02378032 4.47454284,5.23135308 L4.00015656,7.63616687 L3.52577029,5.23143966 C3.48481338,5.0238669 3.2688502,4.85700784 2.97557615,4.80631593 L1.20325025,4.50008658 L2.97567009,4.19377065 C3.2688502,4.14307874 3.48478206,3.97621968 3.52570767,3.76869021 L4.00009394,1.36381149 L4.10965681,1.91925802 C4.1272232,2.00808791 4.24583542,2.07031645 4.37409193,2.05815212 C4.50259895,2.04603108 4.59259143,1.96421408 4.57505636,1.87536255 L4.23277806,0.140409229 C4.21690256,0.0599774895 4.11751628,0 4.00006263,0 C3.88264028,0 3.7832227,0.0599774895 3.76734719,0.140409229 L3.06024549,3.72481638 C3.04540331,3.80007503 2.96743487,3.86052871 2.86162951,3.87879684 L0.177887024,4.34262132 C0.0733341683,4.36069465 0,4.42562878 0,4.50010822 C0,4.57458767 0.0733341683,4.6395218 0.177887024,4.65759513 L2.8615982,5.12131138 C2.96743487,5.13960116 3.04543462,5.20005483 3.0602768,5.27531349 L3.76734719,8.85961242 C3.7832227,8.94004416 3.88260897,9 4.00006263,9 C4.11751628,9 4.21690256,8.94002251 4.23277806,8.85961242 L4.93987976,5.27524855 C4.95472194,5.19996825 5.03269038,5.13953623 5.13852705,5.12126809 L7.82211298,4.65750855 C7.92666583,4.63943522 8,4.57450109 8,4.50002164 C8,4.4255422 7.92672846,4.36058643 7.8221756,4.3425131 Z" id="Path-Copy-3"></path>
                </g>
                <path d="M30.0146151,30.4163498 C30.0347959,30.5253089 30.1430115,30.6141905 30.2878759,30.64086 L31.9414715,30.9452947 C32.0189147,30.959552 32.0198031,31.0404495 31.9423598,31.0547067 C31.5035071,31.1355036 30.6899203,31.2852721 30.2869648,31.3594602 C30.1421004,31.3861297 30.0348187,31.4748938 30.0146379,31.5838362 L29.5762636,33.9511646 C29.5642143,34.0162785 29.4363646,34.0162785 29.4242926,33.9511646 L28.9859182,31.5838697 C28.9657374,31.4749106 28.858433,31.3861465 28.7135458,31.359477 C28.3105675,31.2853224 27.4969579,31.1355539 27.0580824,31.0547571 C26.9806392,31.0404998 26.9806392,30.9597701 27.0580824,30.9455128 C27.4969807,30.864716 28.3106359,30.7149139 28.7135913,30.6406922 C28.858433,30.6140227 28.9657147,30.5252586 28.9858955,30.4163162 L29.4242698,28.0489375 C29.4363191,27.9838237 29.5643507,27.9836019 29.5761952,28.0487865 C29.9591837,30.1565045 30.0021054,30.3487553 30.0146151,30.4163498 Z" id="Path-Copy" transform="translate(29.500000, 31.000000) scale(-1, -1) translate(-29.500000, -31.000000) "></path>
                <path d="M10.7777195,5.30751601 L7.42476359,4.74096333 C7.29156751,4.71845043 7.19348071,4.6445097 7.17488884,4.55255335 L6.89002223,3.1402986 C6.86810339,3.03170228 6.46761492,0.624720378 6.13707102,0.506790355 C5.80652712,0.388860333 6.28635396,3.08532585 6.3082728,3.19389571 L6.59317854,4.60617692 C6.64437469,4.85982405 6.91491577,5.06384227 7.28236943,5.12593132 L9.49617203,5.5 L7.28084294,5.87430677 C6.91428952,5.93623709 6.64433555,6.14017595 6.59317854,6.39387599 L6.0001957,9.33309284 L5.40721286,6.39398181 C5.35601672,6.14028177 5.08606275,5.93634291 4.71947019,5.87438613 L2.50406281,5.50010582 L4.71958761,5.12571969 C5.08606275,5.06376291 5.35597758,4.85982405 5.40713458,4.60617692 L6.00011742,1.66688071 L6.13707102,2.3457598 C6.159029,2.45432966 6.30729428,2.53038677 6.46761492,2.51551926 C6.62824868,2.50070466 6.74073929,2.4007061 6.71882045,2.29210978 L6.29097257,0.17161128 C6.27112819,0.0733058205 6.14689535,0 6.00007828,0 C5.85330035,0 5.72902837,0.0733058205 5.70918399,0.17161128 L4.82530686,4.55255335 C4.80675413,4.64453615 4.70929359,4.71842398 4.57703689,4.7407517 L1.22235878,5.30764828 C1.09166771,5.32973791 1,5.40910184 1,5.50013227 C1,5.59116271 1.09166771,5.67052664 1.22235878,5.69261627 L4.57699775,6.25938058 C4.70929359,6.28173475 4.80679327,6.35562257 4.825346,6.44760537 L5.70918399,10.8284152 C5.72902837,10.9267206 5.85326121,11 6.00007828,11 C6.14689535,11 6.27112819,10.9266942 6.29097257,10.8284152 L7.1748497,6.44752601 C7.19340243,6.35551676 7.29086298,6.28165539 7.42315882,6.25932767 L10.7776412,5.69251045 C10.9083323,5.67042082 11,5.59105689 11,5.50002645 C11,5.40899602 10.9084106,5.32960563 10.7777195,5.30751601 Z" id="Path" transform="translate(6.000000, 5.500000) scale(-1, -1) translate(-6.000000, -5.500000) "></path>
            </g>
        </g>
    </g>
</svg>