<?xml version="1.0" encoding="UTF-8"?>
<svg width="434px" height="271px" viewBox="0 0 434 271" version="1.1" xmlns="http://www.w3.org/2000/svg" xmlns:xlink="http://www.w3.org/1999/xlink">
    <title>Group 7 Copy</title>
    <g id="Page-1" stroke="none" stroke-width="1" fill="none" fill-rule="evenodd">
        <g id="Group-7-Copy">
            <circle id="Oval-Copy-3" stroke="#E3951C" stroke-width="5" cx="302" cy="135.5" r="111"></circle>
            <g id="Group-3-Copy-2" fill="#000000" font-family="MillionDreams-Regular, Million Dreams" font-size="131" font-weight="normal">
                <text id="Emelie" letter-spacing="2.61875">
                    <tspan x="0" y="115">E</tspan>
                    <tspan x="64.31975" y="115" font-size="121" letter-spacing="2.55625">melie</tspan>
                </text>
                <text id="Sabel" letter-spacing="2.91875">
                    <tspan x="55" y="209">S</tspan>
                    <tspan x="124.20475" y="209" font-size="121" letter-spacing="2.85625">abel</tspan>
                </text>
            </g>
            <g id="Group" transform="translate(407.000000, 87.500000) scale(-1, 1) translate(-407.000000, -87.500000) translate(380.000000, 48.000000)" fill="#C0984B" fill-rule="nonzero">
                <g id="Group-2" transform="translate(8.000000, 32.500000) scale(-1, -1) translate(-8.000000, -32.500000) translate(0.000000, 23.000000)">
                    <path d="M9.39341942,7.84632441 C9.44806282,8.15504196 9.74107724,8.40687298 10.1333255,8.48243654 L14.6107536,9.34500175 C14.8204461,9.38539736 14.8228514,9.61460684 14.6131589,9.65500245 C13.4248809,9.88392678 11.2219379,10.3082708 10.1308586,10.5184706 C9.73861027,10.5940342 9.44812449,10.8455325 9.3934811,11.1542026 L8.20649826,17.8616331 C8.17387258,18.0461223 7.82769495,18.0461223 7.79500759,17.8616331 L6.60802475,11.1542976 C6.55338135,10.8455801 6.26283391,10.5940817 5.87052393,10.5185181 C4.77938289,10.3084134 2.57637827,9.88406936 1.3880386,9.65514503 C1.17834611,9.61474941 1.17834611,9.38601518 1.3880386,9.34561956 C2.57643994,9.11669523 4.77956792,8.69225612 5.87064728,8.4819613 C6.26283391,8.40639774 6.55331968,8.15489939 6.60796307,7.84622936 L7.79494591,1.13865621 C7.8275716,0.954167058 8.17424187,0.953538796 8.20631324,1.13822849 C9.2433281,7.11009606 9.35954698,7.65480663 9.39341942,7.84632441 Z" id="Path-Copy"></path>
                    <path d="M8.72296964,16.8737966 L9.84615385,11.48545 C8.62824485,9.86984731 7.72776324,8.19362109 7.16073937,7 L7.00613263,7.74165275 C6.947443,8.02310379 6.63551363,8.25238131 6.21422019,8.3213249 C5.04234877,8.51303228 2.6760177,8.90004371 1.39968405,9.10882449 C1.17446429,9.14565796 1.17446429,9.35422206 1.39968405,9.39105553 C2.6760177,9.59979297 5.04215004,9.98671774 6.21402147,10.1782951 C6.63538115,10.2471954 6.947443,10.4765162 7.00613263,10.7580106 L8.28100897,16.8738399 C8.31611676,17.0420606 8.68792809,17.0420606 8.72296964,16.8737966 Z" id="Path-Copy-2"></path>
                    <path d="M15.6443512,9.16752765 L10.2796217,8.18893667 C10.066508,8.15005074 9.90956914,8.02233494 9.87982214,7.86350125 L9.42403557,5.42415213 C9.38896543,5.23657667 8.74818387,1.07906247 8.21931363,0.875365159 C7.69044339,0.671667848 8.45816633,5.32919919 8.49323647,5.51672896 L8.94908567,7.95612377 C9.0309995,8.39424155 9.46386523,8.74663665 10.0517911,8.85388138 L13.5938753,9.5 L10.0493487,10.1465299 C9.46286323,10.2535004 9.03093687,10.6057585 8.94908567,11.0439676 L8.00031313,16.1207967 L7.05154058,11.0441504 C6.96962675,10.6059412 6.5377004,10.2536832 5.9511523,10.146667 L2.4065005,9.50018278 L5.95134018,8.85351582 C6.5377004,8.74649957 6.96956413,8.39424155 7.05141533,7.95612377 L8.00018788,2.87915759 L8.21931363,4.05176693 C8.25444639,4.23929669 8.49167084,4.37066805 8.74818387,4.34498781 C9.0051979,4.31939895 9.18518287,4.14667417 9.15011273,3.95909871 L8.46555611,0.296419484 C8.43380511,0.126619145 8.23503257,0 8.00012525,0 C7.76528056,0 7.56644539,0.126619145 7.53469439,0.296419484 L6.12049098,7.86350125 C6.09080661,8.02238063 5.93486974,8.15000505 5.72325902,8.18857111 L0.355774048,9.16775612 C0.146668337,9.20591093 0,9.34299409 0,9.50022847 C0,9.65746286 0.146668337,9.79454601 0.355774048,9.83270083 L5.72319639,10.8116574 C5.93486974,10.8502691 6.09086924,10.9778935 6.12055361,11.1367729 L7.53469439,18.7036262 C7.56644539,18.8734265 7.76521794,19 8.00012525,19 C8.23503257,19 8.43380511,18.8733809 8.46555611,18.7036262 L9.87975952,11.1366358 C9.90944389,10.9777108 10.0653808,10.850132 10.2770541,10.811566 L15.644226,9.83251805 C15.8533317,9.79436324 16,9.65728008 16,9.50004569 C16,9.34281131 15.8534569,9.20568246 15.6443512,9.16752765 Z" id="Path-Copy-3"></path>
                </g>
                <g id="Group-2-Copy" transform="translate(46.000000, 69.500000) scale(-1, -1) translate(-46.000000, -69.500000) translate(38.000000, 60.000000)">
                    <path d="M9.39341942,7.84632441 C9.44806282,8.15504196 9.74107724,8.40687298 10.1333255,8.48243654 L14.6107536,9.34500175 C14.8204461,9.38539736 14.8228514,9.61460684 14.6131589,9.65500245 C13.4248809,9.88392678 11.2219379,10.3082708 10.1308586,10.5184706 C9.73861027,10.5940342 9.44812449,10.8455325 9.3934811,11.1542026 L8.20649826,17.8616331 C8.17387258,18.0461223 7.82769495,18.0461223 7.79500759,17.8616331 L6.60802475,11.1542976 C6.55338135,10.8455801 6.26283391,10.5940817 5.87052393,10.5185181 C4.77938289,10.3084134 2.57637827,9.88406936 1.3880386,9.65514503 C1.17834611,9.61474941 1.17834611,9.38601518 1.3880386,9.34561956 C2.57643994,9.11669523 4.77956792,8.69225612 5.87064728,8.4819613 C6.26283391,8.40639774 6.55331968,8.15489939 6.60796307,7.84622936 L7.79494591,1.13865621 C7.8275716,0.954167058 8.17424187,0.953538796 8.20631324,1.13822849 C9.2433281,7.11009606 9.35954698,7.65480663 9.39341942,7.84632441 Z" id="Path-Copy"></path>
                    <path d="M8.72296964,16.8737966 L9.84615385,11.48545 C8.62824485,9.86984731 7.72776324,8.19362109 7.16073937,7 L7.00613263,7.74165275 C6.947443,8.02310379 6.63551363,8.25238131 6.21422019,8.3213249 C5.04234877,8.51303228 2.6760177,8.90004371 1.39968405,9.10882449 C1.17446429,9.14565796 1.17446429,9.35422206 1.39968405,9.39105553 C2.6760177,9.59979297 5.04215004,9.98671774 6.21402147,10.1782951 C6.63538115,10.2471954 6.947443,10.4765162 7.00613263,10.7580106 L8.28100897,16.8738399 C8.31611676,17.0420606 8.68792809,17.0420606 8.72296964,16.8737966 Z" id="Path-Copy-2"></path>
                    <path d="M15.6443512,9.16752765 L10.2796217,8.18893667 C10.066508,8.15005074 9.90956914,8.02233494 9.87982214,7.86350125 L9.42403557,5.42415213 C9.38896543,5.23657667 8.74818387,1.07906247 8.21931363,0.875365159 C7.69044339,0.671667848 8.45816633,5.32919919 8.49323647,5.51672896 L8.94908567,7.95612377 C9.0309995,8.39424155 9.46386523,8.74663665 10.0517911,8.85388138 L13.5938753,9.5 L10.0493487,10.1465299 C9.46286323,10.2535004 9.03093687,10.6057585 8.94908567,11.0439676 L8.00031313,16.1207967 L7.05154058,11.0441504 C6.96962675,10.6059412 6.5377004,10.2536832 5.9511523,10.146667 L2.4065005,9.50018278 L5.95134018,8.85351582 C6.5377004,8.74649957 6.96956413,8.39424155 7.05141533,7.95612377 L8.00018788,2.87915759 L8.21931363,4.05176693 C8.25444639,4.23929669 8.49167084,4.37066805 8.74818387,4.34498781 C9.0051979,4.31939895 9.18518287,4.14667417 9.15011273,3.95909871 L8.46555611,0.296419484 C8.43380511,0.126619145 8.23503257,0 8.00012525,0 C7.76528056,0 7.56644539,0.126619145 7.53469439,0.296419484 L6.12049098,7.86350125 C6.09080661,8.02238063 5.93486974,8.15000505 5.72325902,8.18857111 L0.355774048,9.16775612 C0.146668337,9.20591093 0,9.34299409 0,9.50022847 C0,9.65746286 0.146668337,9.79454601 0.355774048,9.83270083 L5.72319639,10.8116574 C5.93486974,10.8502691 6.09086924,10.9778935 6.12055361,11.1367729 L7.53469439,18.7036262 C7.56644539,18.8734265 7.76521794,19 8.00012525,19 C8.23503257,19 8.43380511,18.8733809 8.46555611,18.7036262 L9.87975952,11.1366358 C9.90944389,10.9777108 10.0653808,10.850132 10.2770541,10.811566 L15.644226,9.83251805 C15.8533317,9.79436324 16,9.65728008 16,9.50004569 C16,9.34281131 15.8534569,9.20568246 15.6443512,9.16752765 Z" id="Path-Copy-3"></path>
                </g>
                <path d="M27.533211,11.0975335 L20.4920035,9.91292333 C20.2122918,9.8658509 20.0063095,9.71124755 19.9672666,9.5189752 L19.3690467,6.56607889 C19.3230171,6.33901387 18.4819913,1.30623352 17.7878491,1.05965256 C17.0937069,0.813071605 18.1013433,6.45113587 18.1473729,6.67814558 L18.7456749,9.63109719 C18.8531868,10.1614503 19.4213231,10.5880338 20.1929758,10.7178564 L24.8419613,11.5 L20.1897702,12.2826414 C19.420008,12.4121321 18.8531046,12.8385497 18.7456749,13.3690134 L17.500411,19.5146487 L16.255147,13.3692347 C16.1476351,12.838771 15.5807318,12.4123534 14.8108874,12.2828074 L10.1585319,11.5002213 L14.811134,10.7174139 C15.5807318,10.5878679 16.1475529,10.1614503 16.2549826,9.63109719 L17.5002466,3.48529603 L17.7878491,4.90477049 C17.8339609,5.13178021 18.145318,5.29080869 18.4819913,5.25972208 C18.8193222,5.2287461 19.0555525,5.01965821 19.009523,4.79259318 L18.1110424,0.358823586 C18.0693692,0.153275807 17.8084802,0 17.5001644,0 C17.1919307,0 16.9309596,0.153275807 16.8892864,0.358823586 L15.0331444,9.5189752 C14.9941837,9.71130287 14.7895165,9.86579559 14.5117775,9.91248082 L7.46695344,11.09781 C7.19250219,11.1439974 7,11.3099402 7,11.5002766 C7,11.6906129 7.19250219,11.8565557 7.46695344,11.9027431 L14.5116953,13.0877958 C14.7895165,13.1345363 14.9942659,13.289029 15.0332266,13.4813567 L16.8892864,22.6412317 C16.9309596,22.8467795 17.1918485,23 17.5001644,23 C17.8084802,23 18.0693692,22.8467242 18.1110424,22.6412317 L19.9671844,13.4811907 C20.0061451,13.2888078 20.2108122,13.1343704 20.4886335,13.0876851 L27.5330466,11.9025218 C27.8074978,11.8563344 28,11.6903917 28,11.5000553 C28,11.309719 27.8076622,11.1437209 27.533211,11.0975335 Z" id="Path" transform="translate(17.500000, 11.500000) scale(-1, -1) translate(-17.500000, -11.500000) "></path>
            </g>
        </g>
    </g>
</svg>